<?xml version="1.0" encoding="UTF-8" standalone="no"?>
<!-- Created with Inkscape (http://www.inkscape.org/) -->

<svg
   xmlns:dc="http://purl.org/dc/elements/1.1/"
   xmlns:cc="http://creativecommons.org/ns#"
   xmlns:rdf="http://www.w3.org/1999/02/22-rdf-syntax-ns#"
   xmlns:svg="http://www.w3.org/2000/svg"
   xmlns="http://www.w3.org/2000/svg"
   xmlns:sodipodi="http://sodipodi.sourceforge.net/DTD/sodipodi-0.dtd"
   xmlns:inkscape="http://www.inkscape.org/namespaces/inkscape"
   version="1.1"
   id="svg96"
   width="653.76001"
   height="404.79999"
   viewBox="0 0 653.76001 404.79999"
   sodipodi:docname="Aco_Logo_Blau.svg"
   inkscape:version="0.92.5 (2060ec1f9f, 2020-04-08)">
  <metadata
     id="metadata102">
    <rdf:RDF>
      <cc:Work
         rdf:about="">
        <dc:format>image/svg+xml</dc:format>
        <dc:type
           rdf:resource="http://purl.org/dc/dcmitype/StillImage" />
      </cc:Work>
    </rdf:RDF>
  </metadata>
  <defs
     id="defs100" />
  <sodipodi:namedview
     pagecolor="#ffffff"
     bordercolor="#666666"
     borderopacity="1"
     objecttolerance="10"
     gridtolerance="10"
     guidetolerance="10"
     inkscape:pageopacity="0"
     inkscape:pageshadow="2"
     inkscape:window-width="1920"
     inkscape:window-height="1036"
     id="namedview98"
     showgrid="false"
     inkscape:zoom="1.863069"
     inkscape:cx="321.81671"
     inkscape:cy="220.30295"
     inkscape:window-x="0"
     inkscape:window-y="44"
     inkscape:window-maximized="0"
     inkscape:current-layer="g106" />
  <g
     id="g106"
     transform="translate(0.0920915,-2.2941539)">
    <path
       style="fill:#ffffff;stroke-width:0.38988575"
       d="m 63.266348,375.39252 c -8.124684,-1.12579 -11.677408,-2.13053 -16.470042,-4.65773 -12.534048,-6.60938 -19.402044,-18.64142 -18.68848,-32.74031 0.489514,-9.67197 3.955744,-17.2496 10.913889,-23.85917 7.595353,-7.21483 18.08205,-10.71916 30.287862,-10.12125 5.542848,0.27152 10.1175,1.1962 14.743056,2.98 l 3.19169,1.23084 v 3.31819 c 0,1.82499 -0.131587,3.2506 -0.292414,3.16799 -11.149722,-5.72678 -21.506331,-6.82515 -31.873162,-3.38029 -5.000773,1.66174 -8.412919,3.80581 -12.342029,7.75531 -2.808786,2.82335 -3.672822,4.00661 -5.152792,7.05648 -5.454782,11.24105 -3.966161,23.77835 3.919278,33.00836 9.627547,11.26917 29.00381,14.17795 43.682461,6.55772 l 3.228315,-1.67596 v 3.25071 3.25071 l -1.649533,0.84153 c -2.440137,1.24482 -6.633785,2.59742 -10.080558,3.25126 -3.108657,0.5897 -11.309831,1.05767 -13.417541,0.76561 z m 66.475522,-35.64355 v -34.69983 h 3.11908 3.11909 v 15.20554 15.20555 h 22.61338 22.61337 v -15.20555 -15.20554 h 3.11909 3.11908 v 34.69983 34.69983 h -3.11908 -3.11909 v -16.76508 -16.76509 h -22.61337 -22.61338 v 16.76509 16.76508 h -3.11909 -3.11908 z m 94.87038,34.14854 c 0.11636,-0.30321 7.10189,-15.91814 15.52341,-34.69984 l 15.31186,-34.14853 3.13534,0.009 3.13534,0.009 15.50098,34.39878 c 8.52554,18.91935 15.49962,34.5372 15.49796,34.70637 -10e-4,0.16917 -1.52513,0.2569 -3.3855,0.19494 l -3.38249,-0.1127 -4.51269,-10.22849 -4.51271,-10.22846 -18.4468,0.0914 -18.44681,0.0915 -4.53923,10.2345 -4.53922,10.2345 h -3.2755 c -2.66286,0 -3.23593,-0.10307 -3.06394,-0.5513 z m 49.41856,-26.4483 c -0.18666,-0.48248 -2.35116,-5.4389 -4.80999,-11.01427 -2.45882,-5.57537 -5.83372,-13.2951 -7.49979,-17.15497 -1.66606,-3.85987 -3.06789,-7.06503 -3.11519,-7.12256 -0.0473,-0.0575 -1.28408,2.66191 -2.7484,6.04323 -1.46433,3.38131 -4.99932,11.4058 -7.85554,17.83219 -2.85623,6.42641 -5.19316,11.82144 -5.19316,11.98902 0,0.16753 7.10133,0.30461 15.78073,0.30461 h 15.78072 z m 55.72247,-7.70024 v -34.69983 l 13.35359,0.002 c 14.5186,0.002 18.73665,0.37454 23.3878,2.0628 7.42791,2.6962 12.19298,8.48392 12.6645,15.38259 0.64756,9.47369 -5.08665,16.90439 -14.9453,19.36697 -1.47669,0.36886 -3.13756,0.78958 -3.6908,0.93493 -0.96775,0.25426 -0.62375,0.74466 9.07408,12.93556 5.54398,6.96921 11.13969,14.03101 12.43494,15.6929 l 2.35495,3.02162 h -3.886 -3.88599 l -12.22167,-15.59285 -12.22167,-15.59285 -7.99266,0.0949 -7.99265,0.0949 -0.10198,15.49796 -0.10186,15.49796 h -3.11464 -3.1146 v -34.69984 z m 30.2186,-2.13261 c 3.92451,-0.75089 6.74397,-2.07844 9.10548,-4.28736 2.68638,-2.5128 3.7174,-5.0035 3.7174,-8.98052 0,-3.977 -1.03102,-6.46772 -3.7174,-8.98051 -4.31885,-4.03977 -8.13361,-4.86043 -22.5933,-4.86043 h -10.49261 v 13.84094 13.84095 h 10.49261 c 7.61271,0 11.31472,-0.1573 13.48782,-0.57307 z m 62.18433,2.13261 v -34.69983 h 3.31403 3.31403 v 34.69983 34.69983 h -3.31403 -3.31403 z m 70.95921,2.7292 v -31.97063 h -12.86623 -12.86623 v -2.7292 -2.7292 h 29.04649 29.04649 v 2.7292 2.7292 h -12.86623 -12.86623 v 31.97063 31.97063 h -3.31403 -3.31403 z m 92.79281,16.22756 v -15.74309 l -10.19469,-13.40087 c -5.60707,-7.37049 -12.1044,-15.90103 -14.43845,-18.95676 l -4.24375,-5.55587 3.81406,0.0209 3.81406,0.021 2.69778,3.58555 c 14.69373,19.52901 21.56555,28.55645 21.80946,28.65097 0.16005,0.062 5.47864,-6.78049 11.81911,-15.20554 6.34048,-8.42506 11.91316,-15.72034 12.38375,-16.21176 0.78457,-0.81931 1.14041,-0.88404 4.28679,-0.77977 l 3.43119,0.11368 -14.27562,18.78866 -14.27563,18.78867 v 15.81362 15.81369 h -3.31403 -3.31403 V 358.70574 Z M 319.4213,257.62465 c -17.75421,-1.86758 -30.59054,-5.37845 -44.0571,-12.05007 -21.00071,-10.40421 -37.85348,-27.04932 -48.53705,-47.93896 -5.5913,-10.93272 -9.37206,-22.89775 -11.33422,-35.86949 -1.04952,-6.93842 -1.46021,-22.41427 -0.7886,-29.7172 2.18102,-23.7161 10.33232,-44.55375 24.36808,-62.293486 3.55511,-4.49331 11.55804,-12.607452 15.82279,-16.042705 15.6474,-12.603922 34.49358,-20.83381 54.71205,-23.892055 27.21337,-4.1163 54.82368,0.0285 79.11625,11.876779 l 1.46208,0.713097 v 10.477716 c 0,5.762741 -0.13159,10.405091 -0.29242,10.316334 -0.16083,-0.08876 -1.61971,-0.95848 -3.24195,-1.932714 -24.83221,-14.91289 -56.71858,-19.367837 -84.37439,-11.788224 -35.84189,9.823172 -60.99404,37.675037 -67.61598,74.873558 -2.53247,14.22601 -1.98391,30.75822 1.47481,44.44716 3.61215,14.29623 9.4012,26.03628 18.25408,37.01882 14.47479,17.95689 35.28549,29.47932 60.35294,33.41608 4.65325,0.73078 7.09748,0.8598 16.57015,0.87468 11.90361,0.0188 15.12109,-0.29194 24.56281,-2.37146 11.00791,-2.42448 25.37758,-8.36323 34.23461,-14.14861 1.99575,-1.30361 3.70638,-2.3702 3.80139,-2.3702 0.095,0 0.1728,4.71509 0.1728,10.47798 v 10.47797 l -5.36093,2.73733 c -12.118,6.18751 -24.20825,9.82948 -39.86582,12.00887 -4.31479,0.60057 -25.57265,1.10522 -29.43638,0.6988 z m 205.27487,-0.17026 c -8.89849,-0.96979 -19.32735,-3.39495 -27.55449,-6.40761 -9.66331,-3.53858 -22.64035,-10.92446 -30.886,-17.57876 -20.60885,-16.63149 -35.15803,-41.64388 -39.77973,-68.38786 -1.47116,-8.51292 -1.75839,-12.17656 -1.74229,-22.22349 0.0175,-10.89778 0.50299,-15.81851 2.52717,-25.61345 5.50428,-26.635399 20.85054,-50.957093 42.26514,-66.984424 15.50813,-11.606747 33.80352,-18.830561 54.00054,-21.321717 5.35129,-0.660041 21.59145,-0.656685 26.90212,0.0056 36.06287,4.497066 65.84577,24.079551 83.62651,54.98509 l 1.87434,3.257849 3.21259,-0.267608 c 3.41933,-0.284835 10.13122,0.331416 11.97784,1.099734 l 1.08126,0.449892 -2.17489,2.884728 c -2.75985,3.660638 -4.70752,7.524016 -5.64914,11.205686 l -0.739,2.88948 1.34699,4.91475 c 7.51634,27.42496 5.28353,57.55622 -6.10889,82.43761 -5.89378,12.87228 -13.25007,23.5037 -22.91093,33.11126 -8.73212,8.68394 -17.69583,15.08181 -28.69248,20.47937 -11.40564,5.59831 -20.42136,8.411 -33.72512,10.52146 -4.8209,0.76477 -23.57608,1.11738 -28.85154,0.54245 z m 23.39688,-17.69626 c 7.58426,-0.88717 10.38828,-1.57805 11.52573,-2.83979 2.52603,-2.80204 7.98755,-10.41205 11.12044,-15.49505 1.90985,-3.09869 3.47248,-5.68324 3.47251,-5.74345 0,-0.0602 -3.90373,-0.10954 -8.67495,-0.10954 -9.74243,-8e-5 -13.78282,-0.50343 -21.90133,-2.72847 -11.4906,-3.14923 -23.31552,-9.10921 -33.75494,-17.01315 -2.46603,-1.86709 -5.6241,-4.45303 -7.01795,-5.74653 -2.51453,-2.33351 -2.52502,-2.35196 -1.34904,-2.37021 2.19365,-0.034 12.60668,-3.31648 12.10681,-3.81636 -0.11014,-0.11014 -1.83009,-0.43847 -3.82201,-0.72959 -10.17625,-1.48718 -19.69535,-6.58027 -25.2467,-13.50794 -1.87392,-2.33849 -5.86635,-9.66526 -5.86339,-10.76029 0,-0.35712 0.22314,-0.43241 0.68372,-0.23163 2.74825,1.19806 6.48419,1.81006 11.40416,1.86819 5.11401,0.0604 11.56381,-0.39552 11.16975,-0.78956 -0.10722,-0.10721 -2.09622,-0.51932 -4.41998,-0.91579 -11.74254,-2.00348 -20.16431,-6.6518 -23.25887,-12.83749 -1.35878,-2.71602 -2.0837,-5.96443 -1.64177,-7.35687 0.22796,-0.71822 0.37971,-0.6881 2.86017,0.56776 5.62835,2.84966 14.72786,5.11982 24.73338,6.17055 7.42014,0.77922 19.80557,1.11379 26.73735,0.72225 l 5.574,-0.31485 5.73269,5.67599 c 10.89941,10.79158 23.45755,18.80135 39.26286,25.04242 5.10875,2.0173 11.59575,4.17688 12.54663,4.17688 0.58534,0 1.49137,-2.30712 1.0582,-2.69469 -0.19179,-0.1716 -1.92775,-0.79312 -3.85769,-1.38115 -24.58413,-7.49062 -48.32481,-25.01452 -62.39108,-46.05323 -1.39501,-2.0865 -2.4631,-3.86695 -2.37346,-3.95654 0.0895,-0.0896 0.85248,0.18889 1.69529,0.61886 1.39069,0.70948 17.40185,6.302 17.98567,6.2822 0.13568,-0.005 -1.55467,-0.95634 -3.7564,-2.11498 -2.20168,-1.15863 -5.18431,-2.94499 -6.62805,-3.96967 -5.5779,-3.95895 -11.54982,-10.96047 -14.67718,-17.20768 -1.24927,-2.49555 -3.1764,-8.23656 -3.55186,-10.581051 l -0.27482,-1.716167 1.31142,0.79706 c 0.72125,0.43839 5.76531,3.450088 11.20905,6.692678 l 9.89764,5.89562 -3.6967,-3.85143 C 522.21134,97.213766 515.87488,82.518764 515.05768,68.092465 l -0.22656,-3.999964 8.59546,2.914919 c 17.49172,5.93185 31.94353,11.898808 46.88622,19.358627 20.51053,10.239448 35.72293,20.289253 46.51299,30.727933 l 2.65079,2.56451 -1.15196,-2.7292 c -2.50295,-5.92985 -2.98001,-8.14789 -2.98001,-13.85533 0,-5.134191 0.0335,-5.345192 1.22639,-7.752176 l 1.22638,-2.474337 -1.14786,-1.946797 C 609.79482,79.275024 599.26689,68.182068 588.12341,60.843514 555.75883,39.529772 511.08143,41.076683 480.58035,64.567083 c -28.07727,21.623698 -41.87396,58.574107 -35.79147,95.856887 5.41286,33.1783 26.1758,60.39794 55.41564,72.64833 7.93713,3.32537 16.58242,5.62363 24.98204,6.6412 5.9398,0.71957 16.95321,0.74104 22.90649,0.0447 z m 82.47484,-138.01669 c 1.93387,-1.933911 0.56355,-5.281177 -2.16211,-5.281177 -1.60285,0 -3.11908,1.516229 -3.11908,3.119086 0,1.602861 1.51623,3.119081 3.11908,3.119081 0.75966,0 1.55884,-0.35374 2.16211,-0.95699 z M 0.0765733,254.07157 C 0.21412987,253.69631 21.055011,203.51801 46.389655,142.56425 L 92.452624,31.739222 h 9.030466 9.03047 l 46.62497,111.409858 46.62499,111.40985 -9.98501,0.10417 c -5.49176,0.0573 -10.13278,-0.0436 -10.31337,-0.22415 -0.1806,-0.1806 -6.42945,-15.14061 -13.88634,-33.24448 L 156.02081,188.27836 H 101.33137 46.641911 L 32.946454,221.51611 19.250986,254.75387 H 9.5387356 c -9.0851183,0 -9.69610595,-0.0441 -9.4621623,-0.6823 z M 148.02855,168.88154 c -0.44349,-1.12579 -6.60768,-16.25823 -13.69819,-33.62764 -7.09051,-17.36941 -17.32467,-42.634012 -22.74257,-56.143554 -5.4179,-13.509545 -9.97176,-24.562806 -10.11967,-24.562806 -0.14792,0 -1.843157,3.947593 -3.767207,8.77243 -6.616459,16.591749 -17.421619,43.14464 -30.496451,74.94277 -7.205235,17.52323 -13.10043,32.04159 -13.10043,32.26305 0,0.27473 15.047337,0.40265 47.365428,0.40265 h 47.36544 z"
       id="path108"
       inkscape:connector-curvature="0" />
  </g>
</svg>
