<?xml version="1.0" encoding="UTF-8" standalone="no"?>
<svg
   xmlns:dc="http://purl.org/dc/elements/1.1/"
   xmlns:cc="http://creativecommons.org/ns#"
   xmlns:rdf="http://www.w3.org/1999/02/22-rdf-syntax-ns#"
   xmlns:svg="http://www.w3.org/2000/svg"
   xmlns="http://www.w3.org/2000/svg"
   xmlns:sodipodi="http://sodipodi.sourceforge.net/DTD/sodipodi-0.dtd"
   xmlns:inkscape="http://www.inkscape.org/namespaces/inkscape"
   inkscape:version="1.0 (4035a4fb49, 2020-05-01)"
   sodipodi:docname="aco_favicon.svg"
   viewBox="0 0 400 400"
   height="400"
   width="400"
   id="svg96"
   version="1.1">
  <metadata
     id="metadata102">
    <rdf:RDF>
      <cc:Work
         rdf:about="">
        <dc:format>image/svg+xml</dc:format>
        <dc:type
           rdf:resource="http://purl.org/dc/dcmitype/StillImage" />
        <dc:title></dc:title>
      </cc:Work>
    </rdf:RDF>
  </metadata>
  <defs
     id="defs100" />
  <sodipodi:namedview
     inkscape:pagecheckerboard="true"
     inkscape:document-rotation="0"
     inkscape:current-layer="g106"
     inkscape:window-maximized="0"
     inkscape:window-y="1484"
     inkscape:window-x="0"
     inkscape:cy="220.30295"
     inkscape:cx="321.81671"
     inkscape:zoom="1.863069"
     showgrid="false"
     id="namedview98"
     inkscape:window-height="1036"
     inkscape:window-width="1920"
     inkscape:pageshadow="2"
     inkscape:pageopacity="0"
     guidetolerance="10"
     gridtolerance="10"
     objecttolerance="10"
     borderopacity="1"
     bordercolor="#666666"
     pagecolor="#ffffff" />
  <g
     transform="translate(0.0920915,-2.2941539)"
     id="g106">
    <path
       d="M 176.82291,397.8516 C 161.60844,396.19347 143.77738,392.04698 129.71078,386.896 113.18865,380.8458 91.000762,368.21757 76.90251,356.84018 41.665905,328.40398 16.789998,285.63828 8.8879076,239.91196 6.3725517,225.35673 5.8814512,219.09271 5.9089776,201.91467 5.9388925,183.28186 6.768977,174.86849 10.229879,158.1213 19.640992,112.58064 45.879728,70.995875 82.493989,43.592661 109.00948,23.747672 140.29059,11.396539 174.82305,7.1372092 c 9.14953,-1.1285261 36.91664,-1.1227879 45.99671,0.00958 61.65959,7.6889948 112.58181,41.1707428 142.98297,94.0124208 l 3.20471,5.5702 5.49282,-0.45756 c 5.84631,-0.48699 17.32216,0.56666 20.47948,1.88031 l 1.84872,0.76922 -3.71859,4.93225 c -4.71874,6.2589 -8.04882,12.86441 -9.65879,19.15925 l -1.26353,4.94038 2.30306,8.40314 c 12.8513,46.89066 9.03367,98.4085 -10.44486,140.95021 -10.07706,22.00877 -22.65471,40.18616 -39.17266,56.61299 -14.93,14.84762 -30.25598,25.78657 -49.05783,35.01521 -19.50114,9.57188 -34.91605,14.38097 -57.66255,17.98939 -8.24268,1.30759 -40.30992,1.91048 -49.3298,0.92747 z m 40.00353,-30.25671 c 12.96742,-1.51688 17.76167,-2.69812 19.70646,-4.85542 4.31896,-4.79088 13.65695,-17.80232 19.01351,-26.49313 3.26543,-5.29808 5.93718,-9.7171 5.93723,-9.82004 0,-0.10287 -6.67452,-0.18729 -14.83225,-0.18729 -16.65742,-1.4e-4 -23.5656,-0.86076 -37.44647,-4.66509 -19.6464,-5.38449 -39.86442,-15.57475 -57.71353,-29.08875 -4.21638,-3.19231 -9.61598,-7.6137 -11.99915,-9.8253 -4.2993,-3.98979 -4.31724,-4.02133 -2.30657,-4.05254 3.75066,-0.0582 21.55466,-5.67045 20.69999,-6.52514 -0.18832,-0.18831 -3.12906,-0.74968 -6.5348,-1.24744 -17.39915,-2.54275 -33.67472,-11.25082 -43.16631,-23.0956 -3.204,-3.99831 -10.030173,-16.52548 -10.025112,-18.39773 0,-0.61061 0.381515,-0.73934 1.169009,-0.39605 4.698903,2.04842 11.086543,3.09481 19.498613,3.1942 8.74383,0.10322 19.77157,-0.67625 19.09781,-1.34998 -0.18332,-0.18329 -3.58407,-0.88791 -7.55719,-1.5658 -20.07716,-3.4255 -34.476534,-11.37311 -39.767553,-21.94928 -2.323215,-4.6438 -3.562672,-10.19787 -2.807067,-12.57863 0.389757,-1.228 0.649212,-1.1765 4.890254,0.97074 9.623246,4.8723 25.181416,8.75377 42.288656,10.55028 12.6868,1.3323 33.86317,1.90434 45.715,1.2349 l 9.53031,-0.53833 9.80163,9.70469 c 18.63561,18.45123 40.10726,32.14619 67.13088,42.81705 8.73483,3.44914 19.82618,7.14154 21.45198,7.14154 1.0008,0 2.54991,-3.94467 1.80929,-4.60732 -0.32792,-0.29341 -3.29603,-1.35607 -6.5958,-2.36147 -42.03347,-12.80731 -82.62482,-42.76934 -106.67505,-78.74091 -2.38516,-3.56746 -4.21137,-6.61163 -4.05809,-6.76481 0.15302,-0.1532 1.45755,0.32296 2.89857,1.05812 2.37778,1.21305 29.75334,10.77503 30.75155,10.74118 0.23197,-0.008 -2.65815,-1.63514 -6.42262,-3.61616 -3.76439,-1.981 -8.86404,-5.03528 -11.33251,-6.78726 -9.53699,-6.76894 -19.74766,-18.74 -25.09476,-29.42135 -2.13598,-4.26685 -5.43094,-14.08271 -6.07289,-18.09128 l -0.46989,-2.93426 2.24224,1.36281 c 1.23318,0.74955 9.85741,5.89887 19.16502,11.44299 l 16.92278,10.08022 -6.32054,-6.58511 C 172.5744,123.87533 161.74045,98.750124 160.34321,74.08432 l -0.38737,-6.83906 14.69635,4.983865 c 29.907,10.142158 54.61642,20.344347 80.16514,33.099005 35.06849,17.5072 61.07836,34.69015 79.52699,52.538 l 4.53227,4.38474 -1.96959,-4.66633 c -4.27949,-10.13874 -5.09516,-13.93109 -5.09516,-23.68957 0,-8.77834 0.0572,-9.1391 2.09685,-13.2545 l 2.09684,-4.23058 -1.96259,-3.3286 C 322.32291,93.204037 304.32246,74.237524 285.26956,61.690198 229.93324,25.248387 153.54469,27.893265 101.39455,68.056686 53.388585,105.02847 29.799278,168.20553 40.199,231.95089 c 9.254798,56.72761 44.754867,103.26721 94.74856,124.2127 13.57076,5.68564 28.3523,9.61517 42.71381,11.35498 10.15575,1.23031 28.98626,1.26702 39.16507,0.0764 z M 357.84029,131.61666 c 3.30651,-3.30656 0.96356,-9.02964 -3.69673,-9.02964 -2.74052,0 -5.33294,2.59242 -5.33294,5.33294 0,2.74054 2.59242,5.33294 5.33294,5.33294 1.29886,0 2.66528,-0.60481 3.69673,-1.63624 z"
       style="fill:#2359a5;stroke-width:0.666619"
       id="path28" />
  </g>
</svg>
